<svg id="visual" viewBox="0 0 900 600" width="900" height="600" xmlns="http://www.w3.org/2000/svg" xmlns:xlink="http://www.w3.org/1999/xlink" version="1.1"><rect x="0" y="0" width="900" height="600" fill="#FFF4D2"></rect><defs><linearGradient id="grad1_0" x1="33.3%" y1="0%" x2="100%" y2="100%"><stop offset="20%" stop-color="#e3dffd" stop-opacity="1"></stop><stop offset="80%" stop-color="#e3dffd" stop-opacity="1"></stop></linearGradient></defs><defs><linearGradient id="grad1_1" x1="33.3%" y1="0%" x2="100%" y2="100%"><stop offset="20%" stop-color="#e3dffd" stop-opacity="1"></stop><stop offset="80%" stop-color="#ffe0e3" stop-opacity="1"></stop></linearGradient></defs><defs><linearGradient id="grad1_2" x1="33.3%" y1="0%" x2="100%" y2="100%"><stop offset="20%" stop-color="#fff4d2" stop-opacity="1"></stop><stop offset="80%" stop-color="#ffe0e3" stop-opacity="1"></stop></linearGradient></defs><defs><linearGradient id="grad2_0" x1="0%" y1="0%" x2="66.7%" y2="100%"><stop offset="20%" stop-color="#e3dffd" stop-opacity="1"></stop><stop offset="80%" stop-color="#e3dffd" stop-opacity="1"></stop></linearGradient></defs><defs><linearGradient id="grad2_1" x1="0%" y1="0%" x2="66.7%" y2="100%"><stop offset="20%" stop-color="#ffe0e3" stop-opacity="1"></stop><stop offset="80%" stop-color="#e3dffd" stop-opacity="1"></stop></linearGradient></defs><defs><linearGradient id="grad2_2" x1="0%" y1="0%" x2="66.7%" y2="100%"><stop offset="20%" stop-color="#ffe0e3" stop-opacity="1"></stop><stop offset="80%" stop-color="#fff4d2" stop-opacity="1"></stop></linearGradient></defs><g transform="translate(900, 0)"><path d="M0 324.5C-53.5 310.9 -106.9 297.3 -157 271.9C-207.1 246.6 -253.7 209.5 -281 162.2C-308.4 115 -316.4 57.5 -324.5 0L0 0Z" fill="#ffe8d5"></path><path d="M0 216.3C-35.6 207.3 -71.3 198.2 -104.7 181.3C-138 164.4 -169.1 139.7 -187.3 108.2C-205.6 76.6 -211 38.3 -216.3 0L0 0Z" fill="#fedef4"></path><path d="M0 108.2C-17.8 103.6 -35.6 99.1 -52.3 90.6C-69 82.2 -84.6 69.8 -93.7 54.1C-102.8 38.3 -105.5 19.2 -108.2 0L0 0Z" fill="#e3dffd"></path></g><g transform="translate(0, 600)"><path d="M0 -324.5C57.8 -316.6 115.7 -308.8 162.2 -281C208.8 -253.3 244.2 -205.7 269.3 -155.5C294.5 -105.3 309.5 -52.7 324.5 0L0 0Z" fill="#ffe8d5"></path><path d="M0 -216.3C38.6 -211.1 77.1 -205.8 108.2 -187.3C139.2 -168.9 162.8 -137.1 179.6 -103.7C196.3 -70.2 206.3 -35.1 216.3 0L0 0Z" fill="#fedef4"></path><path d="M0 -108.2C19.3 -105.5 38.6 -102.9 54.1 -93.7C69.6 -84.4 81.4 -68.6 89.8 -51.8C98.2 -35.1 103.2 -17.6 108.2 0L0 0Z" fill="#e3dffd"></path></g></svg>