<svg id="visual" viewBox="0 0 900 600" width="900" height="600" xmlns="http://www.w3.org/2000/svg" xmlns:xlink="http://www.w3.org/1999/xlink" version="1.1"><rect x="0" y="0" width="900" height="600" fill="#E5D1FA"></rect><defs><linearGradient id="grad1_0" x1="33.3%" y1="0%" x2="100%" y2="100%"><stop offset="20%" stop-color="#ada2ff" stop-opacity="1"></stop><stop offset="80%" stop-color="#ada2ff" stop-opacity="1"></stop></linearGradient></defs><defs><linearGradient id="grad1_1" x1="33.3%" y1="0%" x2="100%" y2="100%"><stop offset="20%" stop-color="#ada2ff" stop-opacity="1"></stop><stop offset="80%" stop-color="#cdb8fc" stop-opacity="1"></stop></linearGradient></defs><defs><linearGradient id="grad1_2" x1="33.3%" y1="0%" x2="100%" y2="100%"><stop offset="20%" stop-color="#e5d1fa" stop-opacity="1"></stop><stop offset="80%" stop-color="#cdb8fc" stop-opacity="1"></stop></linearGradient></defs><defs><linearGradient id="grad2_0" x1="0%" y1="0%" x2="66.7%" y2="100%"><stop offset="20%" stop-color="#ada2ff" stop-opacity="1"></stop><stop offset="80%" stop-color="#ada2ff" stop-opacity="1"></stop></linearGradient></defs><defs><linearGradient id="grad2_1" x1="0%" y1="0%" x2="66.7%" y2="100%"><stop offset="20%" stop-color="#cdb8fc" stop-opacity="1"></stop><stop offset="80%" stop-color="#ada2ff" stop-opacity="1"></stop></linearGradient></defs><defs><linearGradient id="grad2_2" x1="0%" y1="0%" x2="66.7%" y2="100%"><stop offset="20%" stop-color="#cdb8fc" stop-opacity="1"></stop><stop offset="80%" stop-color="#e5d1fa" stop-opacity="1"></stop></linearGradient></defs><g transform="translate(900, 0)"><path d="M0 324.5C-42.1 319.6 -84.1 314.8 -124.2 299.8C-164.2 284.8 -202.3 259.7 -227 227C-251.7 194.3 -263.1 153.9 -277.2 114.8C-291.2 75.7 -307.8 37.9 -324.5 0L0 0Z" fill="#dac4fb"></path><path d="M0 216.3C-28 213.1 -56.1 209.9 -82.8 199.9C-109.5 189.9 -134.8 173.1 -151.3 151.3C-167.8 129.5 -175.4 102.6 -184.8 76.5C-194.1 50.5 -205.2 25.2 -216.3 0L0 0Z" fill="#beadfd"></path><path d="M0 108.2C-14 106.5 -28 104.9 -41.4 99.9C-54.7 94.9 -67.4 86.6 -75.7 75.7C-83.9 64.8 -87.7 51.3 -92.4 38.3C-97.1 25.2 -102.6 12.6 -108.2 0L0 0Z" fill="#ada2ff"></path></g><g transform="translate(0, 600)"><path d="M0 -324.5C43.6 -317.9 87.1 -311.3 120.5 -291C154 -270.7 177.3 -236.8 208.6 -208.6C239.9 -180.4 279.2 -158 299.8 -124.2C320.4 -90.4 322.5 -45.2 324.5 0L0 0Z" fill="#dac4fb"></path><path d="M0 -216.3C29 -211.9 58.1 -207.5 80.4 -194C102.7 -180.5 118.2 -157.9 139.1 -139.1C159.9 -120.3 186.1 -105.3 199.9 -82.8C213.6 -60.3 215 -30.1 216.3 0L0 0Z" fill="#beadfd"></path><path d="M0 -108.2C14.5 -106 29 -103.8 40.2 -97C51.3 -90.2 59.1 -78.9 69.5 -69.5C80 -60.1 93.1 -52.7 99.9 -41.4C106.8 -30.1 107.5 -15.1 108.2 0L0 0Z" fill="#ada2ff"></path></g></svg>